ply
format ascii 1.0
element vertex 28
property float x
property float y
property float z
property uchar red
property uchar green
property uchar blue
end_header
-66.308731 -1.922557 11.216769 255 40 40
-38.317669 69.882003 4.225677 255 40 40
6.375899 88.555636 6.288177 255 40 40
53.715359 76.432838 8.440520 255 40 40
84.406586 43.148797 3.333545 255 40 40
-48.448397 -20.189220 0.432708 40 200 40
-28.505896 48.064469 -0.282136 40 200 40
9.020298 62.558321 -0.282136 40 200 40
47.612075 53.401124 -0.282136 40 200 40
75.036617 26.555610 -0.282136 40 200 40
-18.694130 26.246919 -0.282136 40 200 40
11.664681 36.561020 -0.282136 40 200 40
41.508803 30.369435 -0.282136 40 200 40
65.666666 9.962410 -0.282136 40 200 40
-31.467248 -37.790098 1.374114 40 200 40
-8.882348 4.429377 1.514739 40 200 40
14.309081 10.563690 1.018789 40 200 40
35.405532 7.337737 1.850677 40 200 40
56.296682 -6.630778 0.393645 40 200 40
-22.368609 -28.709721 17.133769 40 200 40
1.408837 6.107983 8.292849 40 200 40
25.916871 6.792739 9.056285 40 200 40
47.335392 0.165001 7.523398 40 200 40
61.860106 -16.631426 6.428802 40 200 40
-18.084335 -8.888022 18.369752 40 200 40
-6.345243 -83.940116 27.319676 40 80 255
48.700512 -82.188529 32.594024 40 80 255
21.177633 -83.064323 0.717864 40 80 255
