ply
format ascii 1.0
element vertex 28
property float x
property float y
property float z
property uchar red
property uchar green
property uchar blue
end_header
-63.068013 6.617891 8.189356 255 40 40
-37.827606 84.077964 2.931544 255 40 40
10.056769 105.793411 6.017481 255 40 40
57.242408 92.169384 2.462794 255 40 40
84.109015 42.518952 2.021388 255 40 40
-47.252371 -10.074528 1.119044 40 200 40
-28.398814 62.582775 0.076075 40 200 40
11.899462 79.315085 0.076075 40 200 40
51.586591 67.878396 0.076075 40 200 40
75.771213 28.059473 0.076075 40 200 40
-18.970018 41.087586 0.076075 40 200 40
13.742152 52.836790 0.076075 40 200 40
45.930773 43.587393 0.076075 40 200 40
67.433393 13.600008 0.076075 40 200 40
-32.053971 -26.856373 3.947169 40 200 40
-9.541225 19.592374 0.564356 40 200 40
15.584843 26.358487 2.251856 40 200 40
40.274957 19.296375 2.646388 40 200 40
59.095591 -0.859469 0.962794 40 200 40
-23.205914 -17.701607 19.874722 40 200 40
1.648007 22.474449 11.408396 40 200 40
29.257278 22.542527 12.032456 40 200 40
51.319553 8.035035 11.350470 40 200 40
65.719439 -14.790644 9.383276 40 200 40
-16.858643 3.750856 16.466093 40 200 40
-6.507469 -73.355137 27.916857 40 80 255
49.558193 -72.011765 42.497149 40 80 255
21.525361 -72.683449 1.076075 40 80 255
