ply
format ascii 1.0
element vertex 28
property float x
property float y
property float z
property uchar red
property uchar green
property uchar blue
end_header
-66.657596 5.108830 6.248604 255 40 40
-34.046743 76.300064 6.588626 255 40 40
16.609397 97.490838 10.256569 255 40 40
56.864126 83.702195 8.333830 255 40 40
86.587705 45.694858 6.471260 255 40 40
-47.697029 -12.306934 1.006417 40 200 40
-23.432781 54.163618 -0.001396 40 200 40
17.886147 70.353424 -0.001396 40 200 40
51.859942 60.337804 -0.001396 40 200 40
78.003370 30.222502 -0.001396 40 200 40
-12.818809 32.027127 -0.001396 40 200 40
19.162889 43.215994 -0.001396 40 200 40
46.855795 36.973432 -0.001396 40 200 40
69.419049 14.750170 -0.001396 40 200 40
-29.498672 -28.669911 1.772042 40 200 40
-2.204839 9.890650 1.232979 40 200 40
20.439633 16.078534 1.287667 40 200 40
41.851634 13.609042 1.467354 40 200 40
60.834713 -0.722163 0.639229 40 200 40
-17.107708 -19.855031 9.229073 40 200 40
8.556987 13.107036 11.333703 40 200 40
32.064877 13.593620 10.896751 40 200 40
51.911425 5.408001 5.264229 40 200 40
66.993874 -10.468471 9.396162 40 200 40
-10.828420 -1.395401 13.572823 40 200 40
-4.061101 -73.547430 30.938635 40 80 255
48.273558 -75.753194 29.127510 40 80 255
22.106233 -74.650312 0.998604 40 80 255
