ply
format ascii 1.0
element vertex 28
property float x
property float y
property float z
property uchar red
property uchar green
property uchar blue
end_header
-70.912936 6.722639 8.839390 255 40 40
-43.064267 80.633207 7.866727 255 40 40
8.983540 100.941474 3.453128 255 40 40
57.010475 89.365413 2.681450 255 40 40
91.012626 50.632021 3.400200 255 40 40
-50.147090 -9.287184 1.497857 40 200 40
-30.310461 57.479367 -0.166206 40 200 40
11.423052 72.987386 -0.166206 40 200 40
50.849122 64.526482 -0.166206 40 200 40
79.816911 35.137998 -0.166206 40 200 40
-17.556653 34.325542 -0.166206 40 200 40
13.862573 45.033298 -0.166206 40 200 40
44.687746 39.687549 -0.166206 40 200 40
68.621180 19.643973 -0.166206 40 200 40
-28.615730 -26.515421 2.872857 40 200 40
-4.802840 11.171702 0.154107 40 200 40
16.302087 17.079195 -0.146675 40 200 40
38.526369 14.848625 0.288744 40 200 40
57.425449 4.149949 0.431450 40 200 40
-18.520036 -16.179552 10.697075 40 200 40
5.255196 13.596468 8.481159 40 200 40
27.135598 15.401897 7.527989 40 200 40
50.159601 9.681273 4.373634 40 200 40
61.054677 -7.448092 7.124861 40 200 40
-14.669347 0.483376 13.263613 40 200 40
-7.644962 -74.810079 22.134575 40 80 255
46.696078 -71.843135 22.586157 40 80 255
19.525565 -73.326608 0.833794 40 80 255
