ply
format ascii 1.0
element vertex 28
property float x
property float y
property float z
property uchar red
property uchar green
property uchar blue
end_header
-62.145265 -8.172878 6.865913 255 40 40
-30.218453 63.330565 1.894507 255 40 40
9.631252 85.335024 5.069038 255 40 40
49.159821 75.679164 0.987007 255 40 40
84.079885 47.005879 4.742348 255 40 40
-44.536192 -22.342007 0.596382 40 200 40
-21.663165 42.895605 -0.325493 40 200 40
11.815374 59.670314 -0.325493 40 200 40
44.955719 53.077780 -0.325493 40 200 40
75.213067 30.208493 -0.325493 40 200 40
-13.107884 22.460629 -0.325493 40 200 40
13.999496 34.005603 -0.325493 40 200 40
40.751618 30.476395 -0.325493 40 200 40
66.346262 13.411124 -0.325493 40 200 40
-27.574526 -36.314903 2.294507 40 200 40
-4.552599 2.025662 0.604195 40 200 40
16.183618 8.340901 0.182320 40 200 40
36.547526 7.874997 0.498726 40 200 40
57.479457 -3.386245 -0.091118 40 200 40
-18.511023 -28.773279 9.865325 40 200 40
5.271363 4.374779 9.743844 40 200 40
27.536909 6.102156 9.446453 40 200 40
47.304994 3.321897 6.666695 40 200 40
63.991540 -14.659657 5.760445 40 200 40
-12.550814 -10.405168 15.444507 40 200 40
-0.520095 -80.957656 19.245409 40 80 255
52.731466 -76.547025 31.214508 40 80 255
26.105691 -78.752341 0.674507 40 80 255
