ply
format ascii 1.0
element vertex 28
property float x
property float y
property float z
property uchar red
property uchar green
property uchar blue
end_header
-62.553260 -1.011431 8.148621 255 40 40
-36.005643 64.628935 4.541388 255 40 40
5.350108 83.413966 7.863464 255 40 40
44.257148 69.995592 1.922058 255 40 40
79.408773 36.254796 3.304871 255 40 40
-46.071685 -17.712415 0.621277 40 200 40
-27.439578 44.661042 -0.843567 40 200 40
7.090299 59.263839 -0.843567 40 200 40
40.069957 50.096855 -0.843567 40 200 40
70.372684 22.912349 -0.843567 40 200 40
-18.873507 24.693151 -0.843567 40 200 40
8.830488 35.113728 -0.843567 40 200 40
35.882770 30.198080 -0.843567 40 200 40
61.336595 9.569902 -0.843567 40 200 40
-30.058456 -34.169040 2.140808 40 200 40
-10.307439 4.725259 -0.050598 40 200 40
10.570685 10.963609 0.121277 40 200 40
31.695589 10.299337 0.824402 40 200 40
52.300514 -3.772544 -0.484192 40 200 40
-22.932400 -25.535687 9.994449 40 200 40
0.053915 7.248932 8.200578 40 200 40
23.344572 7.148357 9.022539 40 200 40
42.713079 3.365042 5.117371 40 200 40
57.932933 -13.826289 6.298277 40 200 40
-18.027539 -6.561184 12.617371 40 200 40
-7.142796 -74.982636 22.175371 40 80 255
46.010963 -74.083568 33.820496 40 80 255
19.434087 -74.533103 0.156433 40 80 255
