ply
format ascii 1.0
element vertex 28
property float x
property float y
property float z
property uchar red
property uchar green
property uchar blue
end_header
-55.764649 -8.320226 8.595135 255 40 40
-36.634191 66.001824 6.727265 255 40 40
13.006288 82.684823 8.502940 255 40 40
51.249431 67.737452 5.578088 255 40 40
80.065420 33.558537 2.802310 255 40 40
-41.385614 -24.439729 0.462323 40 200 40
-27.704683 45.603771 0.032635 40 200 40
12.897237 58.202455 0.032635 40 200 40
45.979586 46.728266 0.032635 40 200 40
71.361326 18.766451 0.032635 40 200 40
-18.775177 25.205718 0.032635 40 200 40
12.788180 33.720070 0.032635 40 200 40
40.709726 25.719094 0.032635 40 200 40
62.657241 3.974358 0.032635 40 200 40
-27.286283 -40.681790 3.395916 40 200 40
-9.845672 4.807664 0.415448 40 200 40
12.679129 9.237709 1.454510 40 200 40
35.439881 4.709914 1.306073 40 200 40
53.953163 -10.817726 0.126385 40 200 40
-19.032561 -32.946101 14.939220 40 200 40
0.146660 7.360360 8.146729 40 200 40
25.743673 7.065483 8.933767 40 200 40
46.635082 -4.689381 4.604967 40 200 40
60.078332 -19.928337 6.243762 40 200 40
-17.088057 -11.670098 15.478921 40 200 40
-2.706421 -84.946337 24.847742 40 80 255
48.912936 -77.880413 29.044354 40 80 255
23.103261 -81.413374 1.032635 40 80 255
