ply
format ascii 1.0
element vertex 28
property float x
property float y
property float z
property uchar red
property uchar green
property uchar blue
end_header
-56.332847 -3.311922 7.064765 255 40 40
-32.257929 56.853872 3.037421 255 40 40
3.328920 74.730655 2.662035 255 40 40
44.144622 66.430854 2.763984 255 40 40
78.260967 26.917271 1.728827 255 40 40
-42.569417 -21.602688 -0.271173 40 200 40
-24.241955 39.214665 -1.025079 40 200 40
6.313958 53.022159 -1.025079 40 200 40
41.127151 45.852040 -1.025079 40 200 40
70.204917 13.893758 -1.025079 40 200 40
-16.225978 21.575474 -1.025079 40 200 40
9.298997 31.313649 -1.025079 40 200 40
38.109677 25.273242 -1.025079 40 200 40
62.148839 0.870226 -1.025079 40 200 40
-28.037624 -40.492840 0.201484 40 200 40
-8.210008 3.936274 -0.232639 40 200 40
12.284024 9.605182 0.205390 40 200 40
35.092229 4.694416 -0.068048 40 200 40
54.092760 -12.153297 -0.978204 40 200 40
-19.102394 -32.100382 16.528691 40 200 40
1.184041 5.075911 3.844136 40 200 40
24.416708 5.712317 6.692456 40 200 40
45.423737 -5.273267 3.748359 40 200 40
61.094402 -21.997841 5.935395 40 200 40
-16.268562 -9.236541 16.502265 40 200 40
-5.955800 -82.507851 24.869452 40 80 255
48.068550 -83.320384 29.510077 40 80 255
21.056376 -82.914117 -0.025079 40 80 255
