ply
format ascii 1.0
element vertex 28
property float x
property float y
property float z
property uchar red
property uchar green
property uchar blue
end_header
-66.388906 -4.610983 9.753758 255 40 40
-38.009070 75.294017 2.952977 255 40 40
8.052605 97.134216 10.060611 255 40 40
53.205036 87.164432 7.483810 255 40 40
86.139595 49.111029 6.484227 255 40 40
-52.672569 -19.816745 1.117039 40 200 40
-29.306504 56.130484 0.410008 40 200 40
10.215414 73.040437 0.410008 40 200 40
48.970274 65.207904 0.410008 40 200 40
78.398433 34.269355 0.410008 40 200 40
-20.603938 36.966952 0.410008 40 200 40
12.378223 48.946673 0.410008 40 200 40
44.735461 43.251340 0.410008 40 200 40
70.657287 19.427676 0.410008 40 200 40
-33.183407 -40.965665 3.933446 40 200 40
-11.901373 17.803418 7.968602 40 200 40
14.541032 24.852894 8.992039 40 200 40
40.500670 21.294801 3.879294 40 200 40
62.916127 4.585994 0.745946 40 200 40
-26.538934 -31.642474 11.472508 40 200 40
1.219749 22.875231 18.689103 40 200 40
27.834812 24.147614 16.373634 40 200 40
52.441460 11.161321 8.296727 40 200 40
71.279640 -9.170013 8.081878 40 200 40
-20.386698 5.497317 15.806922 40 200 40
-6.571124 -87.141861 34.392106 40 80 255
58.095399 -86.496950 41.653859 40 80 255
25.762138 -86.819405 1.410008 40 80 255
