ply
format ascii 1.0
element vertex 28
property float x
property float y
property float z
property uchar red
property uchar green
property uchar blue
end_header
-71.886887 16.088637 13.371582 255 40 40
-37.133365 90.825924 8.193516 255 40 40
10.280599 108.294728 8.882338 255 40 40
58.671050 94.984808 6.628208 255 40 40
88.359946 60.786777 6.095695 255 40 40
-52.068679 -6.965181 0.699009 40 200 40
-27.451046 66.599618 -0.238491 40 200 40
13.225787 80.263122 -0.238491 40 200 40
53.926100 69.916187 -0.238491 40 200 40
80.775390 41.624740 -0.238491 40 200 40
-17.768735 42.373357 -0.238491 40 200 40
16.170962 52.231469 -0.238491 40 200 40
49.181136 44.847550 -0.238491 40 200 40
73.190867 22.462690 -0.238491 40 200 40
-35.251260 -27.217711 2.773228 40 200 40
-8.086413 18.147059 1.484165 40 200 40
19.116145 24.199832 1.074009 40 200 40
44.436184 19.778937 0.574009 40 200 40
65.606297 3.300645 0.327915 40 200 40
-19.786296 -19.812199 13.667271 40 200 40
6.550053 18.660178 9.749398 40 200 40
33.026042 19.503206 9.191998 40 200 40
55.860693 7.963338 3.580340 40 200 40
73.537371 -10.544138 11.534947 40 200 40
-15.529104 6.139253 19.156208 40 200 40
-7.577886 -86.905669 23.164721 40 80 255
59.511830 -86.719356 31.598755 40 80 255
25.966969 -86.812513 0.761509 40 80 255
