ply
format ascii 1.0
element vertex 28
property float x
property float y
property float z
property uchar red
property uchar green
property uchar blue
end_header
-73.066529 7.995261 7.337346 255 40 40
-40.293928 80.561771 6.203497 255 40 40
7.525254 95.650207 7.463546 255 40 40
50.227065 82.056362 1.406622 255 40 40
79.766976 49.333743 1.590215 255 40 40
-56.875265 -11.940338 0.672247 40 200 40
-32.255955 59.008093 -0.366816 40 200 40
8.325819 70.191452 -0.366816 40 200 40
44.986325 59.560029 -0.366816 40 200 40
71.765518 32.843080 -0.366816 40 200 40
-24.217986 37.454384 -0.366816 40 200 40
9.126392 44.732697 -0.366816 40 200 40
39.745592 37.063713 -0.366816 40 200 40
63.764030 16.352445 -0.366816 40 200 40
-39.927006 -35.986612 2.471578 40 200 40
-16.180015 15.900683 2.019903 40 200 40
9.926964 19.273950 1.922247 40 200 40
34.504855 14.567365 2.394903 40 200 40
55.762572 -0.138204 0.426153 40 200 40
-29.284556 -26.329106 8.863653 40 200 40
-3.514144 15.972286 9.195250 40 200 40
22.559546 14.949569 9.114343 40 200 40
46.234895 6.256994 3.762090 40 200 40
64.557016 -12.592620 8.582403 40 200 40
-23.336175 -1.414643 14.113653 40 200 40
-11.171517 -87.235164 27.034671 40 80 255
50.481807 -82.184253 34.687872 40 80 255
19.655146 -84.709709 0.633184 40 80 255
