ply
format ascii 1.0
element vertex 28
property float x
property float y
property float z
property uchar red
property uchar green
property uchar blue
end_header
-62.633982 5.589252 10.259561 255 40 40
-32.919341 78.759969 4.146279 255 40 40
11.348951 98.203119 4.904092 255 40 40
54.320243 85.488402 5.830252 255 40 40
83.978728 51.860459 2.779092 255 40 40
-48.183771 -11.965655 0.786904 40 200 40
-25.267489 58.993293 -0.076377 40 200 40
12.470299 73.745212 -0.076377 40 200 40
49.109596 63.461589 -0.076377 40 200 40
75.913747 36.207409 -0.076377 40 200 40
-17.615640 39.226616 -0.076377 40 200 40
13.591665 49.287276 -0.076377 40 200 40
43.898972 41.434686 -0.076377 40 200 40
67.848783 20.554352 -0.076377 40 200 40
-30.824485 -33.450138 5.294717 40 200 40
-9.963787 19.459939 5.099404 40 200 40
14.713029 24.829355 5.872842 40 200 40
38.688306 19.407811 3.470524 40 200 40
59.783802 4.901302 2.083779 40 200 40
-23.435852 -24.492812 13.071197 40 200 40
2.184895 19.621766 14.374706 40 200 40
27.379407 22.455759 11.943588 40 200 40
48.881362 10.880752 7.478311 40 200 40
65.862880 -11.224668 9.907998 40 200 40
-17.145541 5.555487 17.220498 40 200 40
-6.996993 -82.467986 29.962169 40 80 255
53.215495 -79.302976 31.143735 40 80 255
23.109248 -80.885481 0.923623 40 80 255
