ply
format ascii 1.0
element vertex 28
property float x
property float y
property float z
property uchar red
property uchar green
property uchar blue
end_header
-72.099013 20.217188 6.929085 255 40 40
-32.243973 90.194213 4.446664 255 40 40
12.170851 105.156462 5.798226 255 40 40
57.080788 88.479250 6.720101 255 40 40
87.133889 52.446217 5.067757 255 40 40
-58.924281 -0.230523 0.849007 40 200 40
-26.563734 66.665153 0.095101 40 200 40
12.064917 77.929052 0.095101 40 200 40
50.249451 65.026127 0.095101 40 200 40
77.019761 35.102737 0.095101 40 200 40
-20.883496 43.136126 0.095101 40 200 40
11.958975 50.701596 0.095101 40 200 40
43.418091 41.573035 0.095101 40 200 40
66.905632 17.759257 0.095101 40 200 40
-46.667072 -21.020373 3.663990 40 200 40
-15.203264 19.607082 1.360726 40 200 40
11.853026 23.474178 1.470101 40 200 40
36.586746 18.119957 1.618539 40 200 40
56.791489 0.415761 0.458382 40 200 40
-34.389138 -14.176337 12.630257 40 200 40
-1.713995 17.600467 12.033866 40 200 40
24.186402 19.443713 10.552922 40 200 40
47.265345 6.669124 8.243539 40 200 40
63.207506 -12.924519 8.134164 40 200 40
-24.189647 6.805911 10.928238 40 200 40
-17.392666 -80.750035 32.642220 40 80 255
44.850380 -77.300207 35.692757 40 80 255
13.728855 -79.025120 1.095101 40 80 255
