ply
format ascii 1.0
element vertex 28
property float x
property float y
property float z
property uchar red
property uchar green
property uchar blue
end_header
-73.192161 15.865122 11.632078 255 40 40
-29.991338 83.671909 8.315672 255 40 40
13.952918 98.911355 7.012449 255 40 40
59.282645 82.489031 6.559812 255 40 40
87.741156 44.273556 3.897703 255 40 40
-56.276738 -3.071338 1.018797 40 200 40
-24.681478 62.163238 0.057859 40 200 40
14.152503 73.457929 0.057859 40 200 40
52.687561 59.719738 0.057859 40 200 40
78.257070 28.044120 0.057859 40 200 40
-19.371624 40.654537 0.057859 40 200 40
14.352087 48.004503 0.057859 40 200 40
46.092469 36.950445 0.057859 40 200 40
68.772969 11.814685 0.057859 40 200 40
-42.117139 -20.963092 3.303953 40 200 40
-14.061768 19.145859 3.366453 40 200 40
14.551672 22.551069 2.999265 40 200 40
39.497385 14.181152 2.393797 40 200 40
59.288869 -4.414758 1.964109 40 200 40
-26.543868 -15.062567 13.412595 40 200 40
0.941349 16.624454 10.710300 40 200 40
28.800377 14.017289 8.371791 40 200 40
51.072463 1.004677 8.579700 40 200 40
66.530837 -16.824888 9.463515 40 200 40
-22.077711 4.108398 17.100828 40 200 40
-16.076643 -85.745559 29.110553 40 80 255
47.014559 -91.445466 22.319004 40 80 255
15.468954 -88.595512 1.057859 40 80 255
