ply
format ascii 1.0
element vertex 28
property float x
property float y
property float z
property uchar red
property uchar green
property uchar blue
end_header
-71.853879 15.546111 11.064288 255 40 40
-36.702101 84.780107 6.169757 255 40 40
9.458509 101.386308 11.267413 255 40 40
55.763252 92.330682 8.837726 255 40 40
91.193643 53.390162 4.560382 255 40 40
-54.814559 -4.372138 0.962726 40 200 40
-28.839040 65.466738 0.079913 40 200 40
11.367918 77.323910 0.079913 40 200 40
50.857518 68.513137 0.079913 40 200 40
81.523731 37.179672 0.079913 40 200 40
-20.975971 46.153370 0.079913 40 200 40
13.277320 53.261498 0.079913 40 200 40
45.951785 44.695594 0.079913 40 200 40
71.853803 20.969189 0.079913 40 200 40
-37.121918 -25.122489 2.088891 40 200 40
-13.112910 26.839994 2.193194 40 200 40
15.186722 29.199093 2.482257 40 200 40
41.046057 20.878057 1.923663 40 200 40
62.183889 4.758722 0.361163 40 200 40
-29.521327 -16.509271 9.255694 40 200 40
1.585741 26.329689 9.572101 40 200 40
28.887966 22.635820 10.958798 40 200 40
53.579670 11.402483 6.493976 40 200 40
70.351666 -7.456462 7.384149 40 200 40
-20.307874 10.237323 12.974939 40 200 40
-10.657446 -75.448269 32.266600 40 80 255
52.980148 -72.972486 33.967379 40 80 255
21.161340 -74.210380 1.079913 40 80 255
